<?xml version="1.0" encoding="utf-8"?>
<!-- Generator: Adobe Illustrator 19.0.0, SVG Export Plug-In . SVG Version: 6.00 Build 0)  -->
<svg version="1.1" id="Camada_1" xmlns="http://www.w3.org/2000/svg" xmlns:xlink="http://www.w3.org/1999/xlink" x="0px" y="0px"
	 viewBox="0 0 219 80" style="enable-background:new 0 0 219 80;" xml:space="preserve">
<style type="text/css">
	.st0{fill:#213135;}
</style>
<g id="XMLID_23_">
	<path id="XMLID_47_" class="st0" d="M74.6,47.9c0,0-0.7-3.6-1.4-1.6c-0.8,2-2.3,3.7-2.3,3.7c0,0-0.1,0.1-0.3,0.3
		c-1.2,1.5-6.4,7.1-12.8,7.1c-2.7,0-5-1.7-5-6.1c0-1.4,0.1-2.7,0.1-3.9c10-0.1,15.8-3,15.8-8.9c0-4.2-2.5-7-8.8-7
		c-9,0-15,6.4-15,17.6c0,6,3.7,10,11.3,10c10.7,0,15.8-8.5,15.8-8.5l0,0c0.5-0.8,1-1.6,1-1.6L74.6,47.9z M62.1,33.3
		c3.2,0,5,2.3,5,5.3c0,4.4-3.6,7.3-13.9,7.3C54.4,37,58.5,33.3,62.1,33.3z"/>
	<path id="XMLID_44_" class="st0" d="M200.1,58c0,0-0.7-3.6-1.4-1.6c-0.8,2-2.3,3.7-2.3,3.7c0,0-0.1,0.1-0.3,0.3
		c-1.2,1.5-6.4,7.1-12.8,7.1c-2.7,0-5-1.7-5-6.1c0-1.4,0.1-2.7,0.1-3.9c10-0.1,15.8-3,15.8-8.9c0-4.2-2.5-7-8.8-7
		c-9,0-15,6.4-15,17.6c0,6,3.7,10,11.3,10c10.7,0,15.8-8.5,15.8-8.5l0,0c0.5-0.8,1-1.6,1-1.6L200.1,58z M187.5,43.4
		c3.2,0,5,2.3,5,5.3c0,4.4-3.6,7.3-13.9,7.3C179.9,47.1,184,43.4,187.5,43.4z"/>
	<path id="XMLID_17_" class="st0" d="M81.5,55.7C81.5,55.7,81.5,55.7,81.5,55.7C81.5,55.7,81.5,55.7,81.5,55.7z"/>
	<path id="XMLID_16_" class="st0" d="M81.7,55.2c-0.1,0.2-0.2,0.3-0.2,0.4C81.6,55.5,81.7,55.4,81.7,55.2z"/>
	<path id="XMLID_15_" class="st0" d="M112.1,58.2c-0.3,1.2-1.1,2-1.8,2.5c-0.6,0.4-1.1,0.6-1.1,0.6v0c-2,0.8-2-1.1-1.9-2.2l0.1-0.5
		c0,0,0-0.1,0-0.1l0,0l0.2-1.2c0.2-1.3,0.5-2.7,0.7-4l0,0c0.7-3.5,1.5-6.8,1.5-9.2c0-5.5-3.3-8.7-8.7-8.7c-4.8,0-7.2,2.9-8.8,6.5
		l0-0.4c0-3.9-2.4-6.1-6.7-6.1c-0.1,0-0.3,0-0.4,0L85,37.1l-2.2,12.6c-0.5,2.9-1.1,5.5-1.1,7.6c0,3.3,2.4,5.7,6.7,5.7
		c0.1,0,0.2,0,0.4,0l0.8-4.6l1.7-9.7c1.8-6.9,4.8-11.2,7.8-11.2c1.9,0,2.8,0.7,2.8,3c0,4.1-2.4,12.1-2.4,16.8c0,3.7,2.2,5.7,6.3,5.6
		c0,0,0.1,0,0.1,0c0.1,0,0.1,0,0.2,0c3.8,0,6.8-2.1,6.9-4.7L112.1,58.2z"/>
	<rect id="XMLID_14_" x="138.5" y="53.5" class="st0" width="0" height="0"/>
	<path id="XMLID_13_" class="st0" d="M129.7,48.8c-1.2,7.3-4.4,12.5-7.8,12.5c-1.7,0-3.2-1.2-3.2-5.5c0-12,4.5-19.1,8.4-19.1
		c2.3,0,3.1,2.1,3.1,5.8c0,1.7-0.1,3.4-0.3,4.9c1.7,1.7,3.9,3.1,6.5,4c0,0,0.3,0.1,0.8,0.3c0.6-2,0.8-4.1,0.8-6.4
		c0-6-3.7-10-10.9-10c-13.3,0-16.2,9.2-16.2,17.6c0,6,3.6,10,10.9,10c8,0,13-4,15.1-10.2c-0.2-0.1-0.3-0.1-0.5-0.2
		C133.8,51.7,131.5,50.4,129.7,48.8z"/>
	<path id="XMLID_36_" class="st0" d="M211.7,66.3c0-0.4-0.3-0.7-0.7-0.7c-0.2,0-0.3,0.1-0.5,0.2l0,0c-5.3,5.2-20.7,11.8-39.7,4.5
		c-6.2-2.4-17.7-9.2-19.3-9.8c0.7-1.5,1.3-3.2,1.6-5c0.5-2.1,0.8-4.5,1.2-6.8c0-0.2,0.1-0.3,0.1-0.5l4.4-28.1l0.2-1.5
		c0.2-1.4,0.4-2.3,0.4-2.3c0.4-2.3,0.8-3.8,2.2-4.5c0.8-0.4,2.3-0.7,4.8-0.1c3.9,0.8,0.7-1.9-3.6-2v0c-0.1,0-0.1,0-0.2,0
		c-0.1,0-0.2,0-0.3,0c-5.4,0.1-9.2,2.4-11.3,6.7c-1,2.2-1.8,6.2-1.8,6.4c-0.2,0.9-2.8,15.6-2.8,15.6L143,58.6
		c-5.2,0-14.4,2.6-13.3,9.4c0.4,2.3,3.5,3.4,4.9,3.4c5.5-0.1,11.7-3,15.4-8.4c1.7,0.9,15.1,7.7,20.3,9.7c17.4,6.5,35.5-0.4,41.1-5.8
		l0,0C211.6,66.7,211.7,66.5,211.7,66.3z M134.9,70.1c-1.5,0-3.5-1-3.6-2.4c-0.7-6.1,9.7-6.7,11.3-6.6
		C141.1,68.3,138.3,70.1,134.9,70.1z"/>
	<path id="XMLID_10_" class="st0" d="M174.8,31.4c-0.7-7.4-7.3-11.7-16.2-13.3c-1.3-0.3-2.7-0.6-4-0.8l0,0.2c0,0,0,0-0.1,0
		c-0.7-0.1-1.4-0.2-2-0.3l0,0.2c-0.7,0-1.5,0-2.2,0c-14.9,0-25.9,11.8-24.9,21.3c0.6,6,5.1,10.7,11.6,12.9c1.5,0.4,2.5,1,3.2,1.6
		c0.5,0.5,0.7,1.1,0.7,1.8c0,0.2,0,0.5-0.1,0.7c-0.1-0.9-0.8-1.6-1.7-1.6c-0.9,0-1.7,0.8-1.7,1.7c0,0.9,0.8,1.7,1.7,1.7c0,0,0,0,0,0
		c0,0,0,0,0,0c0,0,0,0,0.1,0c0,0,0.1,0,0.1,0c1.2-0.1,2.2-1.1,2.2-2.4c0,0,0,0,0,0c0,0,0,0,0,0c0,0,0,0,0,0c0-0.3-0.1-0.6-0.2-0.9
		c-0.8-2.7-4.3-3.7-4.3-3.7c-5.8-2.2-9.8-6.5-10.4-12c-0.9-9.1,10.3-20.2,23.8-20.2c0.6,0,1.2,0,1.9,0c0,0,0,0,0,0
		c1.5,0.1,3,0.3,4.5,0.6c6.6,1.6,11.6,5.1,11.6,12.8c0,8.5-6.9,16.7-17.3,19.4c-0.5,0.1-1,0.1-1.5,0.2v0.2c-0.4,0.1-0.9,0.2-1.3,0.2
		c-0.7,0.1-1.3,0.2-1.9,0.2V53c0.7-0.1,1.4-0.1,2-0.2c0,0,0.1,0,0.1,0V53c0.7-0.1,1.4-0.1,2-0.2c0.9-0.2,1.8-0.3,2.6-0.6
		c0.2,0,0.4-0.1,0.6-0.1C166.3,50.3,175.8,41,174.8,31.4z"/>
	<path id="XMLID_9_" class="st0" d="M83.1,48.3L82,54.6c-0.1,0.2-0.2,0.4-0.2,0.6c-0.1,0.1-0.1,0.3-0.2,0.4c0,0,0,0,0,0.1
		c0,0,0,0,0,0c-0.4,0.6-0.9,0.9-0.9,0.9c-0.1,0.1-0.2,0.1-0.3,0.2c-3,1.8-3.1-0.3-2.9-1.5l0.1-0.6l4.7-25.6c0,0-4,3.7-12,3
		c-0.4,0-0.7,0.3-0.7,0.6c0,0.3,0.3,0.6,0.6,0.6l0,0h0c0,0,0,0,0,0c0,0,0,0,0,0H73l-2.3,12.4c-0.5,2.9-1.1,5.4-1.1,7.5
		c0,3.2,2.3,5.6,6.4,5.7c0.1,0,0.1,0,0.2,0c0,0,0,0,0,0c0,0,0,0,0,0c0.1,0,0.2,0,0.4,0l0,0c3.3-0.2,6-1.9,6.4-4.2l0.3,0.1L83.1,48.3
		z"/>
	<path id="XMLID_8_" class="st0" d="M216.7,44.1l0.1-1.2h-8.6c1.2-6,2.2-11.3,2.2-11.3s-3.2,2.2-8.6,2.2c-0.6,3.6-1.3,5.8-1.9,9.1
		h-3.5l0,0c0,0,0,0-0.1,0c-0.4,0-0.7,0.3-0.7,0.6c0,0.3,0.3,0.6,0.6,0.6v0h0c0,0,0,0,0,0c0,0,0,0,0,0h3.3
		c-1.6,8.6-2.8,15.6-2.8,18.8c0,4.4,3.5,6.8,7.7,6.8c6.3,0,9.2-5,10.6-10.8c0-0.1,0-0.1,0-0.2c0-0.4-0.3-0.7-0.7-0.7
		c-0.3,0-0.5,0.1-0.6,0.4l0,0c0,0,0,0,0,0c0,0.1,0,0.1,0,0.2c-0.9,3.8-3.5,9.2-7.2,9.2c-1.2,0-2.1-0.8-2.1-2.2
		c0-2.6,1.8-12.9,3.5-21.5H216.7z"/>
	<path id="XMLID_30_" class="st0" d="M65.5,62.7c-2.6,1-5.3,1.5-8.2,1.5c-11.7,0-21.2-8.5-22.3-19.4c2.7-1.2,5.1-2.6,7.2-4.3
		c4.1-3.5,6.1-7.6,5.7-11.6c-0.8-7.4-10-12.3-21.5-11.4c-0.9,0.1-1.9,0.2-2.8,0.3c-6,1-11.5,3.4-15.5,6.8C3.9,28,2.3,31.4,2.3,35.4
		c0,5.6,6.4,9.6,9.5,9.8c0,0,0.1,0,0.1,0c0,0,0,0,0,0c0,0,0,0,0,0c0.1,0,0.2,0,0.2,0c0.9-0.1,1.5-0.9,1.5-1.8c0-1-0.8-1.8-1.8-1.8
		c-1,0-1.8,0.8-1.8,1.8c0,0.2,0,0.4,0.1,0.7c-3.6-1.3-6.3-4.4-6.8-8.1c0-0.4-0.1-0.8-0.1-1.2c0-1.8,0.5-3.5,1.4-4.9
		c0.8-1.5,2.1-2.8,3.8-4.3c2.8-2.4,6.4-4.3,10.4-5.5l-0.3,1.6l-6.4,37C10.6,68.5,9.4,70,3.7,70.3c0,0,0,0,0,0
		c-0.4,0-0.7,0.3-0.7,0.7c0,0.4,0.3,0.6,0.6,0.7v0c0,0,0,0,0,0c0,0,0,0,0,0c0,0,0,0,0,0c7.7,0,16.8-5.5,18.7-16
		c0.5-2.1,0.8-4.5,1.2-6.8c0-0.2,0.1-0.3,0.1-0.4l0.1-0.8c0.9-0.1,1.8-0.2,2.7-0.3c0.3,0,0.6-0.1,0.9-0.2l0.1,0.2
		C29.2,58.8,39.5,67.7,52,67.7c5.2,0,10-1.5,13.9-4.1C67.2,62.7,66.9,62.2,65.5,62.7z M28.2,20.2l0.2-1.2
		c7.5,0.6,13.3,3.3,13.3,10.1c0,3.5-1.4,7.1-4.8,10.2c-3.3,3-7.8,5.2-12.7,6.2L28.2,20.2z"/>
	<circle id="XMLID_5_" class="st0" cx="78.3" cy="21.1" r="5.2"/>
	<g id="XMLID_24_">
		<circle id="XMLID_4_" class="st0" cx="73.4" cy="10" r="0.9"/>
		<circle id="XMLID_3_" class="st0" cx="80.8" cy="8.2" r="0.9"/>
		<circle id="XMLID_2_" class="st0" cx="87.1" cy="12.3" r="0.9"/>
		<path id="XMLID_1_" class="st0" d="M86,12.8c-1.6,0.5-4.4,0.8-5.1-3.3c-0.1,0-0.2,0-0.3,0c-0.1,0-0.2-0.1-0.3-0.1
			c-2,3.7-4.6,2.5-5.9,1.5c-0.2,0.2-0.5,0.4-0.8,0.4l0.5,4.2c1.2-0.9,2.7-1.5,4.3-1.5c2.7,0,5.1,1.5,6.3,3.7l2-4.3
			C86.3,13.3,86.1,13,86,12.8z"/>
	</g>
</g>
</svg>
