<?xml version="1.0" encoding="utf-8"?>
<!-- Generator: Adobe Illustrator 19.0.0, SVG Export Plug-In . SVG Version: 6.00 Build 0)  -->
<svg version="1.1" id="Camada_1" xmlns="http://www.w3.org/2000/svg" xmlns:xlink="http://www.w3.org/1999/xlink" x="0px" y="0px"
	 viewBox="0 0 219 80" style="enable-background:new 0 0 219 80;" xml:space="preserve">
<style type="text/css">
	.st0{fill:#FFFFFF;}
</style>
<g id="XMLID_23_">
	<path id="XMLID_47_" class="st0" d="M67.9,47.2c0,0-0.5-2.7-1.1-1.2c-0.6,1.5-1.7,2.7-1.7,2.7c0,0-0.1,0.1-0.2,0.3
		c-0.9,1.1-4.7,5.3-9.4,5.3c-2,0-3.7-1.2-3.7-4.5c0-1,0.1-2,0.1-2.9c7.3-0.1,11.6-2.2,11.6-6.6c0-3.1-1.8-5.1-6.5-5.1
		c-6.6,0-11,4.7-11,12.9c0,4.4,2.7,7.3,8.3,7.3c7.9,0,11.6-6.3,11.6-6.3l0,0c0.3-0.6,0.7-1.2,0.7-1.2L67.9,47.2z M58.6,36.4
		c2.4,0,3.7,1.7,3.7,3.9c0,3.2-2.6,5.3-10.2,5.4C53,39.1,56,36.4,58.6,36.4z"/>
	<path id="XMLID_44_" class="st0" d="M160.1,54.6c0,0-0.5-2.7-1.1-1.2c-0.6,1.5-1.7,2.7-1.7,2.7c0,0-0.1,0.1-0.2,0.3
		c-0.9,1.1-4.7,5.3-9.4,5.3c-2,0-3.7-1.2-3.7-4.5c0-1,0.1-2,0.1-2.9c7.3-0.1,11.6-2.2,11.6-6.6c0-3.1-1.8-5.1-6.5-5.1
		c-6.6,0-11,4.7-11,12.9c0,4.4,2.7,7.3,8.3,7.3c7.9,0,11.6-6.3,11.6-6.3l0,0c0.3-0.6,0.7-1.2,0.7-1.2L160.1,54.6z M150.9,43.8
		c2.4,0,3.7,1.7,3.7,3.9c0,3.2-2.6,5.3-10.2,5.4C145.3,46.6,148.3,43.8,150.9,43.8z"/>
	<path id="XMLID_17_" class="st0" d="M72.9,52.9C72.9,52.9,72.9,52.9,72.9,52.9C72.9,52.9,72.9,52.9,72.9,52.9z"/>
	<path id="XMLID_16_" class="st0" d="M73.1,52.5c-0.1,0.1-0.1,0.2-0.2,0.3C73,52.8,73.1,52.7,73.1,52.5z"/>
	<path id="XMLID_15_" class="st0" d="M95.4,54.7c-0.2,0.9-0.8,1.5-1.3,1.8c-0.4,0.3-0.8,0.4-0.8,0.4v0c-1.5,0.6-1.5-0.8-1.4-1.6
		L92,55c0,0,0-0.1,0-0.1l0,0l0.2-0.9c0.2-1,0.4-2,0.6-2.9l0,0c0.5-2.6,1.1-5,1.1-6.8c0-4-2.4-6.4-6.4-6.4c-3.5,0-5.3,2.1-6.5,4.8
		l0-0.3c0-2.8-1.8-4.5-4.9-4.4c-0.1,0-0.2,0-0.3,0l-0.2,1.2l-1.6,9.3c-0.3,2.1-0.8,4-0.8,5.6c0,2.4,1.7,4.2,4.9,4.2
		c0.1,0,0.2,0,0.3,0l0.6-3.4l1.3-7.1c1.3-5,3.5-8.2,5.8-8.2c1.4,0,2.1,0.5,2.1,2.2c0,3-1.8,8.9-1.8,12.4c0,2.7,1.6,4.2,4.6,4.1
		c0,0,0,0,0.1,0c0,0,0.1,0,0.1,0c2.8,0,5-1.5,5-3.4L95.4,54.7z"/>
	<rect id="XMLID_14_" x="114.8" y="51.2" class="st0" width="0" height="0"/>
	<path id="XMLID_13_" class="st0" d="M108.4,47.8c-0.9,5.4-3.2,9.2-5.7,9.2c-1.2,0-2.3-0.9-2.3-4.1c0-8.8,3.3-14,6.2-14
		c1.7,0,2.3,1.5,2.3,4.3c0,1.3-0.1,2.5-0.2,3.6c1.3,1.3,2.9,2.3,4.8,3c0,0,0.2,0.1,0.6,0.2c0.4-1.4,0.6-3,0.6-4.7
		c0-4.4-2.7-7.3-8-7.3c-9.8,0-11.9,6.8-11.9,12.9c0,4.4,2.6,7.3,8,7.3c5.9,0,9.6-3,11.1-7.5c-0.1,0-0.3-0.1-0.4-0.1
		C111.4,50,109.7,49,108.4,47.8z"/>
	<path id="XMLID_36_" class="st0" d="M168.7,60.7c0-0.3-0.2-0.5-0.5-0.5c-0.1,0-0.3,0.1-0.3,0.1l0,0c-3.9,3.8-15.2,8.7-29.2,3.3
		c-4.5-1.8-13.1-6.8-14.2-7.2c0.5-1.1,0.9-2.3,1.2-3.7c0.3-1.6,0.6-3.3,0.9-5c0-0.1,0-0.2,0.1-0.3l3.3-20.7l0.2-1.1
		c0.2-1,0.3-1.7,0.3-1.7c0.3-1.7,0.6-2.8,1.7-3.3c0.6-0.3,1.7-0.5,3.6-0.1c2.9,0.6,0.5-1.4-2.7-1.5v0c-0.1,0-0.1,0-0.2,0
		c-0.1,0-0.2,0-0.2,0c-4,0.1-6.8,1.8-8.3,5c-0.7,1.6-1.3,4.5-1.3,4.7c-0.1,0.7-2,11.5-2,11.5L118.1,55c-3.8,0-10.6,1.9-9.8,6.9
		c0.3,1.7,2.6,2.5,3.6,2.5c4.1-0.1,8.6-2.2,11.4-6.2c1.3,0.7,11.1,5.7,14.9,7.1c12.8,4.8,26.1-0.3,30.2-4.3l0,0
		C168.6,61,168.7,60.8,168.7,60.7z M112.2,63.5c-1.1,0-2.6-0.7-2.7-1.7c-0.5-4.5,7.1-4.9,8.3-4.9C116.7,62.2,114.7,63.5,112.2,63.5z
		"/>
	<path id="XMLID_10_" class="st0" d="M141.5,35c-0.5-5.5-5.3-8.6-11.9-9.8c-1-0.3-2-0.4-2.9-0.6l0,0.2c0,0,0,0-0.1,0
		c-0.5-0.1-1-0.2-1.5-0.2l0,0.1c-0.5,0-1.1,0-1.6,0c-10.9,0-19,8.6-18.3,15.7c0.4,4.4,3.8,7.9,8.5,9.5c1.1,0.3,1.8,0.7,2.3,1.2
		c0.3,0.4,0.5,0.8,0.5,1.3c0,0.2,0,0.4-0.1,0.5c0-0.7-0.6-1.2-1.2-1.2c-0.7,0-1.2,0.6-1.2,1.2c0,0.7,0.6,1.2,1.2,1.2c0,0,0,0,0,0
		c0,0,0,0,0,0c0,0,0,0,0,0c0,0,0.1,0,0.1,0c0.9-0.1,1.6-0.8,1.6-1.8c0,0,0,0,0,0c0,0,0,0,0,0c0,0,0,0,0,0c0-0.2,0-0.4-0.1-0.7
		c-0.6-2-3.2-2.7-3.2-2.7c-4.2-1.6-7.2-4.8-7.6-8.9c-0.7-6.7,7.6-14.9,17.5-14.9c0.5,0,0.9,0,1.4,0c0,0,0,0,0,0
		c1.1,0.1,2.2,0.2,3.3,0.4c4.8,1.2,8.5,3.8,8.5,9.4c0,6.3-5,12.3-12.7,14.3c-0.4,0-0.7,0.1-1.1,0.1v0.1c-0.3,0.1-0.6,0.1-1,0.2
		c-0.5,0.1-1,0.1-1.4,0.2v0.7c0.5,0,1-0.1,1.5-0.2c0,0,0.1,0,0.1,0v0.3c0.5,0,1-0.1,1.5-0.2c0.7-0.1,1.3-0.3,1.9-0.4
		c0.2,0,0.3,0,0.5-0.1C135.2,48.9,142.2,42.1,141.5,35z"/>
	<path id="XMLID_9_" class="st0" d="M74.1,47.5l-0.8,4.6c-0.1,0.2-0.1,0.3-0.2,0.5c0,0.1-0.1,0.2-0.2,0.3c0,0,0,0,0,0c0,0,0,0,0,0
		c-0.3,0.5-0.7,0.6-0.7,0.6c-0.1,0-0.1,0.1-0.2,0.1c-2.2,1.3-2.3-0.2-2.2-1.1l0.1-0.4l3.5-18.8c0,0-2.9,2.7-8.8,2.2
		c-0.3,0-0.5,0.2-0.5,0.5c0,0.2,0.2,0.4,0.5,0.5l0,0h0c0,0,0,0,0,0c0,0,0,0,0,0h2.1L65,45.6c-0.4,2.1-0.8,4-0.8,5.5
		c0,2.4,1.7,4.1,4.7,4.2c0,0,0.1,0,0.1,0c0,0,0,0,0,0c0,0,0,0,0,0c0.1,0,0.2,0,0.3,0l0,0c2.5-0.1,4.4-1.4,4.7-3.1l0.2,0L74.1,47.5z"
		/>
	<path id="XMLID_8_" class="st0" d="M172.3,44.4l0.1-0.9h-6.3c0.9-4.4,1.6-8.3,1.6-8.3s-2.4,1.6-6.3,1.6c-0.5,2.6-1,4.3-1.4,6.7
		h-2.6l0,0c0,0,0,0,0,0c-0.3,0-0.5,0.2-0.5,0.5c0,0.2,0.2,0.4,0.4,0.5v0h0c0,0,0,0,0,0c0,0,0,0,0,0h2.4c-1.2,6.4-2.1,11.5-2.1,13.8
		c0,3.2,2.5,5,5.7,5c4.6,0,6.7-3.7,7.8-8c0,0,0-0.1,0-0.1c0-0.3-0.2-0.5-0.5-0.5c-0.2,0-0.4,0.1-0.4,0.3l0,0c0,0,0,0,0,0
		c0,0,0,0.1,0,0.1c-0.7,2.8-2.6,6.8-5.3,6.8c-0.9,0-1.6-0.6-1.6-1.6c0-1.9,1.3-9.5,2.5-15.8H172.3z"/>
	<path id="XMLID_30_" class="st0" d="M61.2,58c-1.9,0.7-3.9,1.1-6.1,1.1c-8.6,0-15.6-6.2-16.4-14.2c2-0.8,3.8-1.9,5.3-3.2
		c3-2.6,4.5-5.6,4.2-8.5c-0.6-5.5-7.4-9.1-15.8-8.4c-0.7,0.1-1.4,0.1-2.1,0.3c-4.4,0.7-8.5,2.5-11.4,5c-3,2.6-4.2,5-4.2,8
		c0,4.1,4.7,7.1,7,7.2c0,0,0,0,0.1,0c0,0,0,0,0,0c0,0,0,0,0,0c0.1,0,0.1,0,0.2,0c0.6-0.1,1.1-0.6,1.1-1.3c0-0.7-0.6-1.3-1.3-1.3
		c-0.7,0-1.3,0.6-1.3,1.3c0,0.2,0,0.3,0.1,0.5c-2.7-0.9-4.7-3.2-5-5.9c0-0.3-0.1-0.6-0.1-0.9c0-1.3,0.4-2.5,1-3.6
		c0.6-1.1,1.5-2,2.8-3.1c2.1-1.8,4.7-3.1,7.7-4L26.8,28L22,55.2c-1.3,7.1-2.1,8.2-6.3,8.4c0,0,0,0,0,0c-0.3,0-0.5,0.2-0.5,0.5
		c0,0.3,0.2,0.5,0.5,0.5v0c0,0,0,0,0,0c0,0,0,0,0,0c0,0,0,0,0,0c5.7,0,12.4-4,13.8-11.7c0.3-1.6,0.6-3.3,0.9-5c0-0.1,0-0.2,0.1-0.3
		l0.1-0.6c0.7-0.1,1.3-0.1,2-0.2c0.2,0,0.4-0.1,0.6-0.1l0.1,0.1c1.2,8.5,8.8,15,18,15c3.8,0,7.3-1.1,10.2-3
		C62.4,58.1,62.2,57.7,61.2,58z M33.7,26.8l0.1-0.9c5.5,0.4,9.8,2.4,9.8,7.4c0,2.5-1,5.2-3.5,7.5c-2.4,2.2-5.7,3.8-9.3,4.6
		L33.7,26.8z"/>
	<circle id="XMLID_5_" class="st0" cx="70.6" cy="27.4" r="3.8"/>
	<g id="XMLID_24_">
		<circle id="XMLID_4_" class="st0" cx="67" cy="19.3" r="0.7"/>
		<circle id="XMLID_3_" class="st0" cx="72.4" cy="18" r="0.7"/>
		<circle id="XMLID_2_" class="st0" cx="77.1" cy="21" r="0.7"/>
		<path id="XMLID_1_" class="st0" d="M76.2,21.3c-1.2,0.4-3.2,0.6-3.8-2.4c-0.1,0-0.2,0-0.2,0c-0.1,0-0.2,0-0.2-0.1
			c-1.5,2.7-3.4,1.8-4.3,1.1c-0.1,0.2-0.3,0.3-0.6,0.3l0.3,3.1c0.9-0.7,2-1.1,3.2-1.1c2,0,3.7,1.1,4.6,2.7l1.4-3.1
			C76.5,21.7,76.3,21.5,76.2,21.3z"/>
	</g>
</g>
</svg>
